<?xml version="1.0" encoding="UTF-8" standalone="no"?>
<!DOCTYPE svg PUBLIC "-//W3C//DTD SVG 1.1//EN" "http://www.w3.org/Graphics/SVG/1.1/DTD/svg11.dtd">
<svg width="100%" height="100%" viewBox="0 0 2528 1448" version="1.1" xmlns="http://www.w3.org/2000/svg" xmlns:xlink="http://www.w3.org/1999/xlink" xml:space="preserve" xmlns:serif="http://www.serif.com/" style="fill-rule:evenodd;clip-rule:evenodd;stroke-miterlimit:10;">
    <g id="Layer-1" serif:id="Layer 1">
        <g transform="matrix(-1,0,0,1,1423.57,-591.369)">
            <rect x="278.348" y="955.105" width="866.875" height="128.999" style="fill:white;stroke:black;stroke-width:3px;"/>
        </g>
        <g transform="matrix(-1,0,0,1,2214.45,-516.31)">
            <rect x="1069.22" y="955.575" width="76" height="53" style="fill:rgb(221,221,221);stroke:black;stroke-width:3px;"/>
        </g>
        <text x="141.903px" y="525.248px" style="font-family:'LucidaGrande', 'Lucida Grande', sans-serif;font-weight:500;font-size:36px;">G<tspan x="165.938px 183.839px 215.469px 233.545px 242.956px " y="525.248px 525.248px 525.248px 525.248px 525.248px ">ame 1</tspan></text>
        <g transform="matrix(0.895451,0,0,1,32.4117,0)">
            <text x="310.014px" y="457.14px" style="font-family:'LucidaGrande', 'Lucida Grande', sans-serif;font-weight:500;font-size:62.498px;">#<tspan x="344.845px 379.677px 394.764px 423.737px 453.868px 484px " y="457.14px 457.14px 457.14px 457.14px 457.14px 457.14px ">1 Seed</tspan></text>
        </g>
        <g transform="matrix(1.11505,0,0,1,-126.564,0)">
            <text x="1100.12px" y="482.848px" style="font-family:'LucidaGrande', 'Lucida Grande', sans-serif;font-weight:500;font-size:37.667px;">-</text>
        </g>
        <text x="828.015px" y="449.662px" style="font-family:'LucidaGrande', 'Lucida Grande', sans-serif;font-weight:500;font-size:32px;">(<tspan x="833.461px 838.626px 852.181px 857.346px " y="449.662px 449.662px 449.662px 449.662px "> - )</tspan></text>
        <g transform="matrix(-1,0,0,1,405.196,-591.31)">
            <rect x="127.098" y="955.045" width="151" height="129.06" style="fill:rgb(221,221,221);stroke:black;stroke-width:3px;"/>
        </g>
        <g transform="matrix(1,0,0,1,201.302,372.166)">
            <path d="M0,112.199L1.296,112.671L2.593,112.199C45.493,96.996 58.104,66.353 58.575,65.056L59.046,63.76L58.693,62.464C49.618,33.706 51.622,14.024 51.622,13.907L51.975,11.078L49.382,10.017C27.814,0.942 2.593,-0.354 1.532,-0.472L1.061,-0.472C0,-0.472 -25.222,0.825 -46.671,10.017L-49.264,11.078L-49.029,13.907C-49.029,14.142 -47.143,33.706 -56.1,62.464L-56.454,63.76L-55.982,65.056C-55.393,66.353 -42.9,96.878 0,112.199" style="fill:white;fill-rule:nonzero;"/>
        </g>
        <g transform="matrix(1,0,0,1,243.612,465.154)">
            <path d="M0,-75.193C-18.621,-83.089 -41.014,-84.15 -41.014,-84.15C-41.014,-84.15 -63.407,-83.089 -82.028,-75.193C-82.028,-75.193 -80.143,-57.278 -88.393,-30.761C-88.393,-30.761 -83.678,-2.357 -41.014,8.957C1.768,-2.357 6.482,-30.761 6.482,-30.761C-1.886,-57.161 0,-75.193 0,-75.193" style="fill:rgb(247,247,247);fill-rule:nonzero;"/>
        </g>
        <g transform="matrix(1,0,0,1,202.598,397.622)">
            <path d="M0,53.861C17.443,53.861 32.528,43.018 40.425,26.872C32.528,10.961 17.443,0 0,0C-17.443,0 -32.529,10.843 -40.425,26.989C-32.529,43.018 -17.443,53.861 0,53.861" style="fill:rgb(221,221,221);fill-rule:nonzero;"/>
        </g>
        <g transform="matrix(1,0,0,1,202.598,403.515)">
            <path d="M0,42.193C14.378,42.193 26.989,33.707 33.471,21.096C26.989,8.486 14.378,0 0,0C-14.378,0 -26.989,8.486 -33.472,21.096C-26.989,33.707 -14.378,42.193 0,42.193" style="fill:rgb(247,247,247);fill-rule:nonzero;"/>
        </g>
        <g transform="matrix(0,1,1,0,197.589,415.241)">
            <path d="M-7.012,-3.241L2.652,-3.241C2.77,-4.537 3.006,-5.716 3.241,-7.012L-6.423,-7.012C-6.658,-5.716 -6.894,-4.42 -7.012,-3.241" style="fill:rgb(221,221,221);fill-rule:nonzero;"/>
        </g>
        <g transform="matrix(0,1,1,0,217.33,415.064)">
            <path d="M-6.482,-2.711L3.182,-2.711C2.947,-3.89 2.829,-5.185 2.711,-6.482L-6.954,-6.482C-6.836,-5.304 -6.6,-4.007 -6.482,-2.711" style="fill:rgb(221,221,221);fill-rule:nonzero;"/>
        </g>
        <g transform="matrix(0,1,1,0,204.131,414.593)">
            <path d="M-6.835,-3.065L2.83,-3.065C2.83,-4.361 2.947,-5.54 3.065,-6.835L-6.6,-6.835C-6.717,-5.54 -6.835,-4.244 -6.835,-3.065" style="fill:rgb(221,221,221);fill-rule:nonzero;"/>
        </g>
        <g transform="matrix(0,1,1,0,210.79,414.534)">
            <path d="M-6.659,-2.887L3.005,-2.887C2.887,-4.183 2.887,-5.362 2.887,-6.659L-6.777,-6.659C-6.777,-5.48 -6.777,-4.183 -6.659,-2.887" style="fill:rgb(221,221,221);fill-rule:nonzero;"/>
        </g>
        <g transform="matrix(1,0,0,1,167.83,409.997)">
            <path d="M0,18.504C2.239,10.254 17.208,3.654 34.768,3.654C52.211,3.654 67.179,10.254 69.536,18.386C70.361,17.089 71.068,15.911 71.775,14.497C71.657,14.379 71.657,14.261 71.54,14.025C66.589,5.776 52.211,0 34.768,0C17.325,0 2.947,5.893 -2.003,14.143C-2.003,14.261 -2.121,14.379 -2.239,14.497C-1.532,15.911 -0.825,17.208 0,18.504" style="fill:rgb(221,221,221);fill-rule:nonzero;"/>
        </g>
        <g transform="matrix(1,0,0,1,202.598,480.83)">
            <path d="M0,-105.129C0,-105.129 -25.457,-103.95 -46.436,-94.993C-46.436,-94.993 -44.314,-74.839 -53.743,-44.904C-53.743,-44.904 -41.839,-14.851 0,0C41.721,-14.851 53.743,-44.904 53.743,-44.904C44.314,-74.958 46.436,-94.993 46.436,-94.993C25.457,-103.95 0,-105.129 0,-105.129M0,-97.586C2.829,-97.35 21.568,-96.054 38.657,-89.925C38.539,-81.793 39.482,-66 45.611,-45.493C42.193,-38.893 29.818,-19.446 0,-8.015C-14.732,-13.672 -26.872,-21.804 -36.418,-32.411C-41.368,-37.95 -44.314,-42.782 -45.729,-45.493C-39.6,-66 -38.775,-81.911 -38.775,-89.925C-21.568,-96.054 -2.829,-97.468 0,-97.586" style="fill:rgb(221,221,221);fill-rule:nonzero;"/>
        </g>
        <g transform="matrix(-1,0,0,1,405.196,-591.371)">
            <rect x="127.098" y="955.106" width="151" height="128.999" style="fill:none;stroke:black;stroke-width:3px;"/>
        </g>
        <g transform="matrix(-1,0,0,1,2062.45,-516.31)">
            <rect x="993.223" y="955.575" width="76" height="53" style="fill:rgb(242,242,242);stroke:black;stroke-width:3px;"/>
        </g>
        <g transform="matrix(-1,0,0,1,1910.45,-516.31)">
            <rect x="917.223" y="955.575" width="76" height="53" style="fill:rgb(242,242,242);stroke:black;stroke-width:3px;"/>
        </g>
        <g transform="matrix(-1,0,0,1,1423.57,-241.37)">
            <rect x="278.348" y="780.105" width="866.875" height="129" style="fill:white;stroke:black;stroke-width:3px;"/>
        </g>
        <g transform="matrix(-1,0,0,1,2214.45,-166.31)">
            <rect x="1069.22" y="780.575" width="76" height="53" style="fill:rgb(221,221,221);stroke:black;stroke-width:3px;"/>
        </g>
        <g transform="matrix(-1,0,0,1,405.196,-241.309)">
            <rect x="127.098" y="780.044" width="151" height="129.061" style="fill:rgb(221,221,221);stroke:black;stroke-width:3px;"/>
        </g>
        <g transform="matrix(1,0,0,1,201.302,547.166)">
            <path d="M0,112.199L1.296,112.671L2.593,112.199C45.493,96.996 58.104,66.353 58.575,65.056L59.046,63.761L58.693,62.464C49.618,33.707 51.622,14.024 51.622,13.907L51.975,11.078L49.382,10.017C27.814,0.942 2.593,-0.354 1.532,-0.472L1.061,-0.472C0,-0.472 -25.222,0.824 -46.671,10.017L-49.264,11.078L-49.029,13.907C-49.029,14.142 -47.143,33.707 -56.1,62.464L-56.454,63.761L-55.982,65.056C-55.393,66.353 -42.9,96.878 0,112.199" style="fill:white;fill-rule:nonzero;"/>
        </g>
        <g transform="matrix(1,0,0,1,243.612,640.154)">
            <path d="M0,-75.193C-18.621,-83.089 -41.014,-84.15 -41.014,-84.15C-41.014,-84.15 -63.407,-83.089 -82.028,-75.193C-82.028,-75.193 -80.143,-57.279 -88.393,-30.76C-88.393,-30.76 -83.678,-2.357 -41.014,8.957C1.768,-2.357 6.482,-30.76 6.482,-30.76C-1.886,-57.161 0,-75.193 0,-75.193" style="fill:rgb(247,247,247);fill-rule:nonzero;"/>
        </g>
        <g transform="matrix(1,0,0,1,202.598,572.623)">
            <path d="M0,53.86C17.443,53.86 32.528,43.017 40.425,26.871C32.528,10.96 17.443,0 0,0C-17.443,0 -32.529,10.842 -40.425,26.989C-32.529,43.017 -17.443,53.86 0,53.86" style="fill:rgb(221,221,221);fill-rule:nonzero;"/>
        </g>
        <g transform="matrix(1,0,0,1,202.598,578.515)">
            <path d="M0,42.192C14.378,42.192 26.989,33.707 33.471,21.096C26.989,8.485 14.378,0 0,0C-14.378,0 -26.989,8.485 -33.472,21.096C-26.989,33.707 -14.378,42.192 0,42.192" style="fill:rgb(247,247,247);fill-rule:nonzero;"/>
        </g>
        <g transform="matrix(0,1,1,0,197.59,590.241)">
            <path d="M-7.012,-3.241L2.653,-3.241C2.77,-4.538 3.007,-5.717 3.242,-7.012L-6.422,-7.012C-6.658,-5.717 -6.894,-4.421 -7.012,-3.241" style="fill:rgb(221,221,221);fill-rule:nonzero;"/>
        </g>
        <g transform="matrix(0,1,1,0,217.331,590.065)">
            <path d="M-6.483,-2.712L3.183,-2.712C2.947,-3.891 2.83,-5.187 2.71,-6.483L-6.954,-6.483C-6.837,-5.305 -6.6,-4.008 -6.483,-2.712" style="fill:rgb(221,221,221);fill-rule:nonzero;"/>
        </g>
        <g transform="matrix(0,1,1,0,204.13,589.593)">
            <path d="M-6.835,-3.064L2.829,-3.064C2.829,-4.36 2.947,-5.539 3.064,-6.835L-6.6,-6.835C-6.718,-5.539 -6.835,-4.243 -6.835,-3.064" style="fill:rgb(221,221,221);fill-rule:nonzero;"/>
        </g>
        <g transform="matrix(0,1,1,0,210.791,589.535)">
            <path d="M-6.659,-2.889L3.006,-2.889C2.887,-4.185 2.887,-5.364 2.887,-6.659L-6.776,-6.659C-6.776,-5.482 -6.776,-4.185 -6.659,-2.889" style="fill:rgb(221,221,221);fill-rule:nonzero;"/>
        </g>
        <g transform="matrix(1,0,0,1,167.83,584.997)">
            <path d="M0,18.503C2.239,10.253 17.208,3.653 34.768,3.653C52.211,3.653 67.179,10.253 69.536,18.386C70.361,17.089 71.068,15.91 71.775,14.496C71.657,14.378 71.657,14.261 71.54,14.024C66.589,5.774 52.211,0 34.768,0C17.325,0 2.947,5.893 -2.003,14.143C-2.003,14.261 -2.121,14.378 -2.239,14.496C-1.532,15.91 -0.825,17.207 0,18.503" style="fill:rgb(221,221,221);fill-rule:nonzero;"/>
        </g>
        <g transform="matrix(1,0,0,1,202.598,655.829)">
            <path d="M0,-105.129C0,-105.129 -25.457,-103.95 -46.436,-94.993C-46.436,-94.993 -44.314,-74.84 -53.743,-44.903C-53.743,-44.903 -41.839,-14.851 0,0C41.721,-14.851 53.743,-44.903 53.743,-44.903C44.314,-74.957 46.436,-94.993 46.436,-94.993C25.457,-103.95 0,-105.129 0,-105.129M0,-97.586C2.829,-97.351 21.568,-96.054 38.657,-89.925C38.539,-81.793 39.482,-66 45.611,-45.493C42.193,-38.893 29.818,-19.446 0,-8.015C-14.732,-13.672 -26.872,-21.804 -36.418,-32.411C-41.368,-37.95 -44.314,-42.782 -45.729,-45.493C-39.6,-66 -38.775,-81.911 -38.775,-89.925C-21.568,-96.054 -2.829,-97.468 0,-97.586" style="fill:rgb(221,221,221);fill-rule:nonzero;"/>
        </g>
        <g transform="matrix(-1,0,0,1,405.196,-241.37)">
            <rect x="127.098" y="780.105" width="151" height="129" style="fill:none;stroke:black;stroke-width:3px;"/>
        </g>
        <g transform="matrix(-1,0,0,1,2062.45,-166.31)">
            <rect x="993.223" y="780.575" width="76" height="53" style="fill:rgb(242,242,242);stroke:black;stroke-width:3px;"/>
        </g>
        <g transform="matrix(-1,0,0,1,1910.45,-166.31)">
            <rect x="917.223" y="780.575" width="76" height="53" style="fill:rgb(242,242,242);stroke:black;stroke-width:3px;"/>
        </g>
        <g transform="matrix(-1,0,0,1,1423.57,158.63)">
            <rect x="278.348" y="580.105" width="866.875" height="129" style="fill:white;stroke:black;stroke-width:3px;"/>
        </g>
        <g transform="matrix(-1,0,0,1,2214.45,233.69)">
            <rect x="1069.22" y="580.575" width="76" height="53" style="fill:rgb(221,221,221);stroke:black;stroke-width:3px;"/>
        </g>
        <g transform="matrix(1.11505,0,0,1,-117.821,0)">
            <text x="1024.12px" y="482.848px" style="font-family:'LucidaGrande', 'Lucida Grande', sans-serif;font-weight:500;font-size:37.667px;">-</text>
        </g>
        <g transform="matrix(1.11505,0,0,1,-109.077,0)">
            <text x="948.119px" y="482.848px" style="font-family:'LucidaGrande', 'Lucida Grande', sans-serif;font-weight:500;font-size:37.667px;">-</text>
        </g>
        <text x="946.502px" y="427.746px" style="font-family:'LucidaGrande', 'Lucida Grande', sans-serif;font-weight:500;font-size:17px;">1<tspan x="955.212px " y="427.746px ">3</tspan></text>
        <g>
            <text x="1024.31px" y="427.746px" style="font-family:'LucidaGrande', 'Lucida Grande', sans-serif;font-weight:500;font-size:17px;">1<tspan x="1033.02px " y="427.746px ">4</tspan></text>
            <text x="1082.95px" y="427.746px" style="font-family:'LucidaGrande', 'Lucida Grande', sans-serif;font-weight:500;font-size:24px;">T<tspan x="1095.84px 1108.31px 1115px 1125.98px " y="427.746px 427.746px 427.746px 427.746px ">otal</tspan></text>
        </g>
        <g transform="matrix(0.895451,0,0,1,32.4117,0)">
            <text x="310.014px" y="632.14px" style="font-family:'LucidaGrande', 'Lucida Grande', sans-serif;font-weight:500;font-size:62.498px;">#<tspan x="344.845px 379.677px 394.764px 423.737px 453.868px 484px " y="632.14px 632.14px 632.14px 632.14px 632.14px 632.14px ">4 Seed</tspan></text>
        </g>
        <g transform="matrix(1.11505,0,0,1,-126.564,0)">
            <text x="1100.12px" y="657.848px" style="font-family:'LucidaGrande', 'Lucida Grande', sans-serif;font-weight:500;font-size:37.667px;">-</text>
        </g>
        <text x="828.015px" y="624.662px" style="font-family:'LucidaGrande', 'Lucida Grande', sans-serif;font-weight:500;font-size:32px;">(<tspan x="833.461px 838.626px 852.181px 857.346px " y="624.662px 624.662px 624.662px 624.662px "> - )</tspan></text>
        <g transform="matrix(1.11505,0,0,1,-117.821,0)">
            <text x="1024.12px" y="657.848px" style="font-family:'LucidaGrande', 'Lucida Grande', sans-serif;font-weight:500;font-size:37.667px;">-</text>
        </g>
        <g transform="matrix(1.11505,0,0,1,-109.077,0)">
            <text x="948.119px" y="657.848px" style="font-family:'LucidaGrande', 'Lucida Grande', sans-serif;font-weight:500;font-size:37.667px;">-</text>
        </g>
        <text x="946.502px" y="602.746px" style="font-family:'LucidaGrande', 'Lucida Grande', sans-serif;font-weight:500;font-size:17px;">1<tspan x="955.212px " y="602.746px ">3</tspan></text>
        <g>
            <text x="1024.31px" y="602.746px" style="font-family:'LucidaGrande', 'Lucida Grande', sans-serif;font-weight:500;font-size:17px;">1<tspan x="1033.02px " y="602.746px ">4</tspan></text>
            <text x="1082.95px" y="602.746px" style="font-family:'LucidaGrande', 'Lucida Grande', sans-serif;font-weight:500;font-size:24px;">T<tspan x="1095.84px 1108.31px 1115px 1125.98px " y="602.746px 602.746px 602.746px 602.746px ">otal</tspan></text>
        </g>
        <text x="141.903px" y="900.248px" style="font-family:'LucidaGrande', 'Lucida Grande', sans-serif;font-weight:500;font-size:36px;">G<tspan x="165.938px 183.839px 215.469px 233.545px 242.956px " y="900.248px 900.248px 900.248px 900.248px 900.248px ">ame 2</tspan></text>
        <g transform="matrix(0.895451,0,0,1,32.4117,0)">
            <text x="310.014px" y="832.14px" style="font-family:'LucidaGrande', 'Lucida Grande', sans-serif;font-weight:500;font-size:62.498px;">#<tspan x="344.845px 379.677px 394.764px 423.737px 453.868px 484px " y="832.14px 832.14px 832.14px 832.14px 832.14px 832.14px ">2 Seed</tspan></text>
        </g>
        <g transform="matrix(1.11505,0,0,1,-126.564,0)">
            <text x="1100.12px" y="857.848px" style="font-family:'LucidaGrande', 'Lucida Grande', sans-serif;font-weight:500;font-size:37.667px;">-</text>
        </g>
        <text x="828.015px" y="824.662px" style="font-family:'LucidaGrande', 'Lucida Grande', sans-serif;font-weight:500;font-size:32px;">(<tspan x="833.461px 838.626px 852.181px 857.346px " y="824.662px 824.662px 824.662px 824.662px "> - )</tspan></text>
        <g transform="matrix(-1,0,0,1,405.196,158.691)">
            <rect x="127.098" y="580.044" width="151" height="129.061" style="fill:rgb(221,221,221);stroke:black;stroke-width:3px;"/>
        </g>
        <g transform="matrix(1,0,0,1,201.302,747.166)">
            <path d="M0,112.199L1.296,112.671L2.593,112.199C45.493,96.996 58.104,66.353 58.575,65.056L59.046,63.761L58.693,62.464C49.618,33.707 51.622,14.024 51.622,13.907L51.975,11.078L49.382,10.017C27.814,0.942 2.593,-0.354 1.532,-0.472L1.061,-0.472C0,-0.472 -25.222,0.824 -46.671,10.017L-49.264,11.078L-49.029,13.907C-49.029,14.142 -47.143,33.707 -56.1,62.464L-56.454,63.761L-55.982,65.056C-55.393,66.353 -42.9,96.878 0,112.199" style="fill:white;fill-rule:nonzero;"/>
        </g>
        <g transform="matrix(1,0,0,1,243.612,840.154)">
            <path d="M0,-75.193C-18.621,-83.089 -41.014,-84.15 -41.014,-84.15C-41.014,-84.15 -63.407,-83.089 -82.028,-75.193C-82.028,-75.193 -80.143,-57.279 -88.393,-30.76C-88.393,-30.76 -83.678,-2.357 -41.014,8.957C1.768,-2.357 6.482,-30.76 6.482,-30.76C-1.886,-57.161 0,-75.193 0,-75.193" style="fill:rgb(247,247,247);fill-rule:nonzero;"/>
        </g>
        <g transform="matrix(1,0,0,1,202.598,772.623)">
            <path d="M0,53.86C17.443,53.86 32.528,43.017 40.425,26.871C32.528,10.96 17.443,0 0,0C-17.443,0 -32.529,10.842 -40.425,26.989C-32.529,43.017 -17.443,53.86 0,53.86" style="fill:rgb(221,221,221);fill-rule:nonzero;"/>
        </g>
        <g transform="matrix(1,0,0,1,202.598,778.515)">
            <path d="M0,42.192C14.378,42.192 26.989,33.707 33.471,21.096C26.989,8.485 14.378,0 0,0C-14.378,0 -26.989,8.485 -33.472,21.096C-26.989,33.707 -14.378,42.192 0,42.192" style="fill:rgb(247,247,247);fill-rule:nonzero;"/>
        </g>
        <g transform="matrix(0,1,1,0,197.59,790.241)">
            <path d="M-7.012,-3.241L2.653,-3.241C2.77,-4.538 3.007,-5.717 3.242,-7.012L-6.422,-7.012C-6.658,-5.717 -6.894,-4.421 -7.012,-3.241" style="fill:rgb(221,221,221);fill-rule:nonzero;"/>
        </g>
        <g transform="matrix(0,1,1,0,217.331,790.065)">
            <path d="M-6.483,-2.712L3.183,-2.712C2.947,-3.891 2.83,-5.187 2.71,-6.483L-6.954,-6.483C-6.837,-5.305 -6.6,-4.008 -6.483,-2.712" style="fill:rgb(221,221,221);fill-rule:nonzero;"/>
        </g>
        <g transform="matrix(0,1,1,0,204.13,789.593)">
            <path d="M-6.835,-3.064L2.829,-3.064C2.829,-4.36 2.947,-5.539 3.064,-6.835L-6.6,-6.835C-6.718,-5.539 -6.835,-4.243 -6.835,-3.064" style="fill:rgb(221,221,221);fill-rule:nonzero;"/>
        </g>
        <g transform="matrix(0,1,1,0,210.791,789.535)">
            <path d="M-6.659,-2.889L3.006,-2.889C2.887,-4.185 2.887,-5.364 2.887,-6.659L-6.776,-6.659C-6.776,-5.482 -6.776,-4.185 -6.659,-2.889" style="fill:rgb(221,221,221);fill-rule:nonzero;"/>
        </g>
        <g transform="matrix(1,0,0,1,167.83,784.997)">
            <path d="M0,18.503C2.239,10.253 17.208,3.653 34.768,3.653C52.211,3.653 67.179,10.253 69.536,18.386C70.361,17.089 71.068,15.91 71.775,14.496C71.657,14.378 71.657,14.261 71.54,14.024C66.589,5.774 52.211,0 34.768,0C17.325,0 2.947,5.893 -2.003,14.143C-2.003,14.261 -2.121,14.378 -2.239,14.496C-1.532,15.91 -0.825,17.207 0,18.503" style="fill:rgb(221,221,221);fill-rule:nonzero;"/>
        </g>
        <g transform="matrix(1,0,0,1,202.598,855.829)">
            <path d="M0,-105.129C0,-105.129 -25.457,-103.95 -46.436,-94.993C-46.436,-94.993 -44.314,-74.84 -53.743,-44.903C-53.743,-44.903 -41.839,-14.851 0,0C41.721,-14.851 53.743,-44.903 53.743,-44.903C44.314,-74.957 46.436,-94.993 46.436,-94.993C25.457,-103.95 0,-105.129 0,-105.129M0,-97.586C2.829,-97.351 21.568,-96.054 38.657,-89.925C38.539,-81.793 39.482,-66 45.611,-45.493C42.193,-38.893 29.818,-19.446 0,-8.015C-14.732,-13.672 -26.872,-21.804 -36.418,-32.411C-41.368,-37.95 -44.314,-42.782 -45.729,-45.493C-39.6,-66 -38.775,-81.911 -38.775,-89.925C-21.568,-96.054 -2.829,-97.468 0,-97.586" style="fill:rgb(221,221,221);fill-rule:nonzero;"/>
        </g>
        <g transform="matrix(-1,0,0,1,405.196,158.63)">
            <rect x="127.098" y="580.105" width="151" height="129" style="fill:none;stroke:black;stroke-width:3px;"/>
        </g>
        <g transform="matrix(-1,0,0,1,2062.45,233.69)">
            <rect x="993.223" y="580.575" width="76" height="53" style="fill:rgb(242,242,242);stroke:black;stroke-width:3px;"/>
        </g>
        <g transform="matrix(-1,0,0,1,1910.45,233.69)">
            <rect x="917.223" y="580.575" width="76" height="53" style="fill:rgb(242,242,242);stroke:black;stroke-width:3px;"/>
        </g>
        <g transform="matrix(-1,0,0,1,1423.57,508.63)">
            <rect x="278.348" y="405.105" width="866.875" height="129" style="fill:white;stroke:black;stroke-width:3px;"/>
        </g>
        <g transform="matrix(-1,0,0,1,2214.45,583.69)">
            <rect x="1069.22" y="405.575" width="76" height="53" style="fill:rgb(221,221,221);stroke:black;stroke-width:3px;"/>
        </g>
        <g transform="matrix(-1,0,0,1,405.196,508.691)">
            <rect x="127.098" y="405.044" width="151" height="129.061" style="fill:rgb(221,221,221);stroke:black;stroke-width:3px;"/>
        </g>
        <g transform="matrix(1,0,0,1,201.302,922.166)">
            <path d="M0,112.199L1.296,112.671L2.593,112.199C45.493,96.996 58.104,66.353 58.575,65.056L59.046,63.761L58.693,62.464C49.618,33.707 51.622,14.024 51.622,13.907L51.975,11.078L49.382,10.017C27.814,0.942 2.593,-0.354 1.532,-0.472L1.061,-0.472C0,-0.472 -25.222,0.824 -46.671,10.017L-49.264,11.078L-49.029,13.907C-49.029,14.142 -47.143,33.707 -56.1,62.464L-56.454,63.761L-55.982,65.056C-55.393,66.353 -42.9,96.878 0,112.199" style="fill:white;fill-rule:nonzero;"/>
        </g>
        <g transform="matrix(1,0,0,1,243.612,1015.15)">
            <path d="M0,-75.193C-18.621,-83.089 -41.014,-84.15 -41.014,-84.15C-41.014,-84.15 -63.407,-83.089 -82.028,-75.193C-82.028,-75.193 -80.143,-57.279 -88.393,-30.76C-88.393,-30.76 -83.678,-2.357 -41.014,8.957C1.768,-2.357 6.482,-30.76 6.482,-30.76C-1.886,-57.161 0,-75.193 0,-75.193" style="fill:rgb(247,247,247);fill-rule:nonzero;"/>
        </g>
        <g transform="matrix(1,0,0,1,202.598,947.623)">
            <path d="M0,53.86C17.443,53.86 32.528,43.017 40.425,26.871C32.528,10.96 17.443,0 0,0C-17.443,0 -32.529,10.842 -40.425,26.989C-32.529,43.017 -17.443,53.86 0,53.86" style="fill:rgb(221,221,221);fill-rule:nonzero;"/>
        </g>
        <g transform="matrix(1,0,0,1,202.598,953.515)">
            <path d="M0,42.192C14.378,42.192 26.989,33.707 33.471,21.096C26.989,8.485 14.378,0 0,0C-14.378,0 -26.989,8.485 -33.472,21.096C-26.989,33.707 -14.378,42.192 0,42.192" style="fill:rgb(247,247,247);fill-rule:nonzero;"/>
        </g>
        <g transform="matrix(0,1,1,0,197.59,965.241)">
            <path d="M-7.012,-3.241L2.653,-3.241C2.77,-4.538 3.007,-5.717 3.242,-7.012L-6.422,-7.012C-6.658,-5.717 -6.894,-4.421 -7.012,-3.241" style="fill:rgb(221,221,221);fill-rule:nonzero;"/>
        </g>
        <g transform="matrix(0,1,1,0,217.331,965.065)">
            <path d="M-6.483,-2.712L3.183,-2.712C2.947,-3.891 2.83,-5.187 2.71,-6.483L-6.954,-6.483C-6.837,-5.305 -6.6,-4.008 -6.483,-2.712" style="fill:rgb(221,221,221);fill-rule:nonzero;"/>
        </g>
        <g transform="matrix(0,1,1,0,204.13,964.593)">
            <path d="M-6.835,-3.064L2.829,-3.064C2.829,-4.36 2.947,-5.539 3.064,-6.835L-6.6,-6.835C-6.718,-5.539 -6.835,-4.243 -6.835,-3.064" style="fill:rgb(221,221,221);fill-rule:nonzero;"/>
        </g>
        <g transform="matrix(0,1,1,0,210.791,964.535)">
            <path d="M-6.659,-2.889L3.006,-2.889C2.887,-4.185 2.887,-5.364 2.887,-6.659L-6.776,-6.659C-6.776,-5.482 -6.776,-4.185 -6.659,-2.889" style="fill:rgb(221,221,221);fill-rule:nonzero;"/>
        </g>
        <g transform="matrix(1,0,0,1,167.83,959.997)">
            <path d="M0,18.503C2.239,10.253 17.208,3.653 34.768,3.653C52.211,3.653 67.179,10.253 69.536,18.386C70.361,17.089 71.068,15.91 71.775,14.496C71.657,14.378 71.657,14.261 71.54,14.024C66.589,5.774 52.211,0 34.768,0C17.325,0 2.947,5.893 -2.003,14.143C-2.003,14.261 -2.121,14.378 -2.239,14.496C-1.532,15.91 -0.825,17.207 0,18.503" style="fill:rgb(221,221,221);fill-rule:nonzero;"/>
        </g>
        <g transform="matrix(1,0,0,1,202.598,1030.83)">
            <path d="M0,-105.129C0,-105.129 -25.457,-103.95 -46.436,-94.993C-46.436,-94.993 -44.314,-74.84 -53.743,-44.903C-53.743,-44.903 -41.839,-14.851 0,0C41.721,-14.851 53.743,-44.903 53.743,-44.903C44.314,-74.957 46.436,-94.993 46.436,-94.993C25.457,-103.95 0,-105.129 0,-105.129M0,-97.586C2.829,-97.351 21.568,-96.054 38.657,-89.925C38.539,-81.793 39.482,-66 45.611,-45.493C42.193,-38.893 29.818,-19.446 0,-8.015C-14.732,-13.672 -26.872,-21.804 -36.418,-32.411C-41.368,-37.95 -44.314,-42.782 -45.729,-45.493C-39.6,-66 -38.775,-81.911 -38.775,-89.925C-21.568,-96.054 -2.829,-97.468 0,-97.586" style="fill:rgb(221,221,221);fill-rule:nonzero;"/>
        </g>
        <g transform="matrix(-1,0,0,1,405.196,508.63)">
            <rect x="127.098" y="405.105" width="151" height="129" style="fill:none;stroke:black;stroke-width:3px;"/>
        </g>
        <g transform="matrix(-1,0,0,1,2062.45,583.69)">
            <rect x="993.223" y="405.575" width="76" height="53" style="fill:rgb(242,242,242);stroke:black;stroke-width:3px;"/>
        </g>
        <g transform="matrix(-1,0,0,1,1910.45,583.69)">
            <rect x="917.223" y="405.575" width="76" height="53" style="fill:rgb(242,242,242);stroke:black;stroke-width:3px;"/>
        </g>
        <g transform="matrix(-1,0,0,1,4071.57,-217.37)">
            <rect x="1602.35" y="768.105" width="866.875" height="129" style="fill:white;stroke:black;stroke-width:3px;"/>
        </g>
        <g transform="matrix(-1,0,0,1,4862.45,-142.31)">
            <rect x="2393.22" y="768.575" width="76" height="53" style="fill:rgb(221,221,221);stroke:black;stroke-width:3px;"/>
        </g>
        <g transform="matrix(1.11505,0,0,1,-117.821,0)">
            <text x="1024.12px" y="857.848px" style="font-family:'LucidaGrande', 'Lucida Grande', sans-serif;font-weight:500;font-size:37.667px;">-</text>
        </g>
        <g transform="matrix(1.11505,0,0,1,-109.077,0)">
            <text x="948.119px" y="857.848px" style="font-family:'LucidaGrande', 'Lucida Grande', sans-serif;font-weight:500;font-size:37.667px;">-</text>
        </g>
        <text x="946.502px" y="802.746px" style="font-family:'LucidaGrande', 'Lucida Grande', sans-serif;font-weight:500;font-size:17px;">1<tspan x="955.212px " y="802.746px ">3</tspan></text>
        <g>
            <text x="1024.31px" y="802.746px" style="font-family:'LucidaGrande', 'Lucida Grande', sans-serif;font-weight:500;font-size:17px;">1<tspan x="1033.02px " y="802.746px ">4</tspan></text>
            <text x="1082.95px" y="802.746px" style="font-family:'LucidaGrande', 'Lucida Grande', sans-serif;font-weight:500;font-size:24px;">T<tspan x="1095.84px 1108.31px 1115px 1125.98px " y="802.746px 802.746px 802.746px 802.746px ">otal</tspan></text>
        </g>
        <g transform="matrix(0.895451,0,0,1,32.4117,0)">
            <text x="310.014px" y="1007.14px" style="font-family:'LucidaGrande', 'Lucida Grande', sans-serif;font-weight:500;font-size:62.498px;">#<tspan x="344.845px 379.677px 394.764px 423.737px 453.868px 484px " y="1007.14px 1007.14px 1007.14px 1007.14px 1007.14px 1007.14px ">3 Seed</tspan></text>
        </g>
        <g transform="matrix(1.11505,0,0,1,-126.564,0)">
            <text x="1100.12px" y="1032.85px" style="font-family:'LucidaGrande', 'Lucida Grande', sans-serif;font-weight:500;font-size:37.667px;">-</text>
        </g>
        <text x="828.015px" y="999.662px" style="font-family:'LucidaGrande', 'Lucida Grande', sans-serif;font-weight:500;font-size:32px;">(<tspan x="833.461px 838.626px 852.181px 857.346px " y="999.662px 999.662px 999.662px 999.662px "> - )</tspan></text>
        <g transform="matrix(1.11505,0,0,1,-117.821,0)">
            <text x="1024.12px" y="1032.85px" style="font-family:'LucidaGrande', 'Lucida Grande', sans-serif;font-weight:500;font-size:37.667px;">-</text>
        </g>
        <g transform="matrix(1.11505,0,0,1,-109.077,0)">
            <text x="948.119px" y="1032.85px" style="font-family:'LucidaGrande', 'Lucida Grande', sans-serif;font-weight:500;font-size:37.667px;">-</text>
        </g>
        <text x="946.502px" y="977.746px" style="font-family:'LucidaGrande', 'Lucida Grande', sans-serif;font-weight:500;font-size:17px;">1<tspan x="955.212px " y="977.746px ">3</tspan></text>
        <g>
            <text x="1024.31px" y="977.746px" style="font-family:'LucidaGrande', 'Lucida Grande', sans-serif;font-weight:500;font-size:17px;">1<tspan x="1033.02px " y="977.746px ">4</tspan></text>
            <text x="1082.95px" y="977.746px" style="font-family:'LucidaGrande', 'Lucida Grande', sans-serif;font-weight:500;font-size:24px;">T<tspan x="1095.84px 1108.31px 1115px 1125.98px " y="977.746px 977.746px 977.746px 977.746px ">otal</tspan></text>
        </g>
        <text x="1465.9px" y="712.248px" style="font-family:'LucidaGrande', 'Lucida Grande', sans-serif;font-weight:500;font-size:36px;">G<tspan x="1489.94px 1507.84px 1539.47px 1557.55px 1566.96px " y="712.248px 712.248px 712.248px 712.248px 712.248px ">ame 3</tspan></text>
        <g transform="matrix(0.895451,0,0,1,170.835,0)">
            <text x="1634.01px" y="644.14px" style="font-family:'LucidaGrande', 'Lucida Grande', sans-serif;font-weight:500;font-size:62.498px;">G<tspan x="1675.43px 1706.19px 1760.79px 1791.86px 1807.88px 1843.65px 1859.68px 1909.39px 1923.71px 1958.75px 1993.78px 2024.85px " y="644.14px 644.14px 644.14px 644.14px 644.14px 644.14px 644.14px 644.14px 644.14px 644.14px 644.14px 644.14px ">ame 1 Winner</tspan></text>
        </g>
        <g transform="matrix(1.11505,0,0,1,-278.886,0)">
            <text x="2424.12px" y="669.848px" style="font-family:'LucidaGrande', 'Lucida Grande', sans-serif;font-weight:500;font-size:37.667px;">-</text>
        </g>
        <text x="2152.01px" y="636.662px" style="font-family:'LucidaGrande', 'Lucida Grande', sans-serif;font-weight:500;font-size:32px;">(<tspan x="2157.46px 2162.63px 2176.18px 2181.35px " y="636.662px 636.662px 636.662px 636.662px "> - )</tspan></text>
        <g transform="matrix(-1,0,0,1,3053.2,-217.309)">
            <rect x="1451.1" y="768.044" width="151" height="129.061" style="fill:rgb(221,221,221);stroke:black;stroke-width:3px;"/>
        </g>
        <g transform="matrix(1,0,0,1,1525.3,559.166)">
            <path d="M0,112.199L1.297,112.671L2.594,112.199C45.493,96.996 58.104,66.353 58.575,65.056L59.047,63.761L58.693,62.464C49.618,33.707 51.622,14.024 51.622,13.907L51.976,11.078L49.383,10.017C27.814,0.942 2.594,-0.354 1.532,-0.472L1.062,-0.472C0,-0.472 -25.221,0.824 -46.671,10.017L-49.264,11.078L-49.028,13.907C-49.028,14.142 -47.143,33.707 -56.1,62.464L-56.453,63.761L-55.981,65.056C-55.393,66.353 -42.899,96.878 0,112.199" style="fill:white;fill-rule:nonzero;"/>
        </g>
        <g transform="matrix(1,0,0,1,1567.61,652.154)">
            <path d="M0,-75.193C-18.622,-83.089 -41.015,-84.15 -41.015,-84.15C-41.015,-84.15 -63.407,-83.089 -82.029,-75.193C-82.029,-75.193 -80.144,-57.279 -88.394,-30.76C-88.394,-30.76 -83.679,-2.357 -41.015,8.957C1.768,-2.357 6.481,-30.76 6.481,-30.76C-1.886,-57.161 0,-75.193 0,-75.193" style="fill:rgb(247,247,247);fill-rule:nonzero;"/>
        </g>
        <g transform="matrix(1,0,0,1,1526.6,584.623)">
            <path d="M0,53.86C17.442,53.86 32.528,43.017 40.425,26.871C32.528,10.96 17.442,0 0,0C-17.443,0 -32.528,10.842 -40.425,26.989C-32.528,43.017 -17.443,53.86 0,53.86" style="fill:rgb(221,221,221);fill-rule:nonzero;"/>
        </g>
        <g transform="matrix(1,0,0,1,1526.6,590.515)">
            <path d="M0,42.192C14.379,42.192 26.989,33.707 33.472,21.096C26.989,8.485 14.379,0 0,0C-14.379,0 -26.989,8.485 -33.472,21.096C-26.989,33.707 -14.379,42.192 0,42.192" style="fill:rgb(247,247,247);fill-rule:nonzero;"/>
        </g>
        <g transform="matrix(0,1,1,0,1521.59,602.241)">
            <path d="M-7.012,-3.241L2.653,-3.241C2.77,-4.539 3.007,-5.717 3.242,-7.012L-6.422,-7.012C-6.658,-5.717 -6.894,-4.421 -7.012,-3.241" style="fill:rgb(221,221,221);fill-rule:nonzero;"/>
        </g>
        <g transform="matrix(0,1,1,0,1541.33,602.065)">
            <path d="M-6.483,-2.712L3.183,-2.712C2.947,-3.891 2.83,-5.187 2.71,-6.483L-6.954,-6.483C-6.837,-5.305 -6.6,-4.009 -6.483,-2.712" style="fill:rgb(221,221,221);fill-rule:nonzero;"/>
        </g>
        <g transform="matrix(0,1,1,0,1528.13,601.593)">
            <path d="M-6.835,-3.064L2.829,-3.064C2.829,-4.36 2.947,-5.539 3.064,-6.835L-6.6,-6.835C-6.718,-5.539 -6.835,-4.243 -6.835,-3.064" style="fill:rgb(221,221,221);fill-rule:nonzero;"/>
        </g>
        <g transform="matrix(0,1,1,0,1534.79,601.535)">
            <path d="M-6.659,-2.889L3.006,-2.889C2.887,-4.186 2.887,-5.364 2.887,-6.659L-6.776,-6.659C-6.776,-5.482 -6.776,-4.186 -6.659,-2.889" style="fill:rgb(221,221,221);fill-rule:nonzero;"/>
        </g>
        <g transform="matrix(1,0,0,1,1491.83,596.997)">
            <path d="M0,18.503C2.239,10.253 17.207,3.653 34.768,3.653C52.21,3.653 67.179,10.253 69.535,18.386C70.36,17.089 71.067,15.91 71.774,14.496C71.657,14.378 71.657,14.261 71.539,14.024C66.589,5.774 52.21,0 34.768,0C17.325,0 2.946,5.893 -2.004,14.143C-2.004,14.261 -2.122,14.378 -2.239,14.496C-1.532,15.91 -0.825,17.207 0,18.503" style="fill:rgb(221,221,221);fill-rule:nonzero;"/>
        </g>
        <g transform="matrix(1,0,0,1,1526.6,667.829)">
            <path d="M0,-105.129C0,-105.129 -25.457,-103.95 -46.436,-94.993C-46.436,-94.993 -44.314,-74.84 -53.743,-44.903C-53.743,-44.903 -41.839,-14.851 0,0C41.722,-14.851 53.743,-44.903 53.743,-44.903C44.314,-74.957 46.436,-94.993 46.436,-94.993C25.457,-103.95 0,-105.129 0,-105.129M0,-97.586C2.828,-97.351 21.567,-96.054 38.657,-89.925C38.539,-81.793 39.482,-66 45.61,-45.493C42.192,-38.893 29.817,-19.446 0,-8.015C-14.732,-13.672 -26.871,-21.804 -36.418,-32.411C-41.368,-37.95 -44.314,-42.782 -45.729,-45.493C-39.6,-66 -38.775,-81.911 -38.775,-89.925C-21.568,-96.054 -2.828,-97.468 0,-97.586" style="fill:rgb(221,221,221);fill-rule:nonzero;"/>
        </g>
        <g transform="matrix(-1,0,0,1,3053.2,-217.37)">
            <rect x="1451.1" y="768.105" width="151" height="129" style="fill:none;stroke:black;stroke-width:3px;"/>
        </g>
        <g transform="matrix(-1,0,0,1,4710.45,-142.31)">
            <rect x="2317.22" y="768.575" width="76" height="53" style="fill:rgb(242,242,242);stroke:black;stroke-width:3px;"/>
        </g>
        <g transform="matrix(-1,0,0,1,4558.45,-142.31)">
            <rect x="2241.22" y="768.575" width="76" height="53" style="fill:rgb(242,242,242);stroke:black;stroke-width:3px;"/>
        </g>
        <g transform="matrix(-1,0,0,1,4071.57,132.63)">
            <rect x="1602.35" y="593.105" width="866.875" height="129" style="fill:white;stroke:black;stroke-width:3px;"/>
        </g>
        <g transform="matrix(-1,0,0,1,4862.45,207.69)">
            <rect x="2393.22" y="593.575" width="76" height="53" style="fill:rgb(221,221,221);stroke:black;stroke-width:3px;"/>
        </g>
        <g transform="matrix(-1,0,0,1,3053.2,132.691)">
            <rect x="1451.1" y="593.044" width="151" height="129.061" style="fill:rgb(221,221,221);stroke:black;stroke-width:3px;"/>
        </g>
        <g transform="matrix(1,0,0,1,1525.3,734.166)">
            <path d="M0,112.199L1.297,112.671L2.594,112.199C45.493,96.996 58.104,66.353 58.575,65.056L59.047,63.761L58.693,62.464C49.618,33.707 51.622,14.024 51.622,13.907L51.976,11.078L49.383,10.017C27.814,0.942 2.594,-0.354 1.532,-0.472L1.062,-0.472C0,-0.472 -25.221,0.824 -46.671,10.017L-49.264,11.078L-49.028,13.907C-49.028,14.142 -47.143,33.707 -56.1,62.464L-56.453,63.761L-55.981,65.056C-55.393,66.353 -42.899,96.878 0,112.199" style="fill:white;fill-rule:nonzero;"/>
        </g>
        <g transform="matrix(1,0,0,1,1567.61,827.154)">
            <path d="M0,-75.193C-18.622,-83.089 -41.015,-84.15 -41.015,-84.15C-41.015,-84.15 -63.407,-83.089 -82.029,-75.193C-82.029,-75.193 -80.144,-57.279 -88.394,-30.76C-88.394,-30.76 -83.679,-2.357 -41.015,8.957C1.768,-2.357 6.481,-30.76 6.481,-30.76C-1.886,-57.161 0,-75.193 0,-75.193" style="fill:rgb(247,247,247);fill-rule:nonzero;"/>
        </g>
        <g transform="matrix(1,0,0,1,1526.6,759.623)">
            <path d="M0,53.86C17.442,53.86 32.528,43.017 40.425,26.871C32.528,10.96 17.442,0 0,0C-17.443,0 -32.528,10.842 -40.425,26.989C-32.528,43.017 -17.443,53.86 0,53.86" style="fill:rgb(221,221,221);fill-rule:nonzero;"/>
        </g>
        <g transform="matrix(1,0,0,1,1526.6,765.515)">
            <path d="M0,42.192C14.379,42.192 26.989,33.707 33.472,21.096C26.989,8.485 14.379,0 0,0C-14.379,0 -26.989,8.485 -33.472,21.096C-26.989,33.707 -14.379,42.192 0,42.192" style="fill:rgb(247,247,247);fill-rule:nonzero;"/>
        </g>
        <g transform="matrix(0,1,1,0,1521.59,777.241)">
            <path d="M-7.012,-3.241L2.653,-3.241C2.77,-4.539 3.007,-5.717 3.242,-7.012L-6.422,-7.012C-6.658,-5.717 -6.894,-4.421 -7.012,-3.241" style="fill:rgb(221,221,221);fill-rule:nonzero;"/>
        </g>
        <g transform="matrix(0,1,1,0,1541.33,777.065)">
            <path d="M-6.483,-2.712L3.183,-2.712C2.947,-3.891 2.83,-5.187 2.71,-6.483L-6.954,-6.483C-6.837,-5.305 -6.6,-4.009 -6.483,-2.712" style="fill:rgb(221,221,221);fill-rule:nonzero;"/>
        </g>
        <g transform="matrix(0,1,1,0,1528.13,776.593)">
            <path d="M-6.835,-3.064L2.829,-3.064C2.829,-4.36 2.947,-5.539 3.064,-6.835L-6.6,-6.835C-6.718,-5.539 -6.835,-4.243 -6.835,-3.064" style="fill:rgb(221,221,221);fill-rule:nonzero;"/>
        </g>
        <g transform="matrix(0,1,1,0,1534.79,776.535)">
            <path d="M-6.659,-2.889L3.006,-2.889C2.887,-4.186 2.887,-5.364 2.887,-6.659L-6.776,-6.659C-6.776,-5.482 -6.776,-4.186 -6.659,-2.889" style="fill:rgb(221,221,221);fill-rule:nonzero;"/>
        </g>
        <g transform="matrix(1,0,0,1,1491.83,771.997)">
            <path d="M0,18.503C2.239,10.253 17.207,3.653 34.768,3.653C52.21,3.653 67.179,10.253 69.535,18.386C70.36,17.089 71.067,15.91 71.774,14.496C71.657,14.378 71.657,14.261 71.539,14.024C66.589,5.774 52.21,0 34.768,0C17.325,0 2.946,5.893 -2.004,14.143C-2.004,14.261 -2.122,14.378 -2.239,14.496C-1.532,15.91 -0.825,17.207 0,18.503" style="fill:rgb(221,221,221);fill-rule:nonzero;"/>
        </g>
        <g transform="matrix(1,0,0,1,1526.6,842.829)">
            <path d="M0,-105.129C0,-105.129 -25.457,-103.95 -46.436,-94.993C-46.436,-94.993 -44.314,-74.84 -53.743,-44.903C-53.743,-44.903 -41.839,-14.851 0,0C41.722,-14.851 53.743,-44.903 53.743,-44.903C44.314,-74.957 46.436,-94.993 46.436,-94.993C25.457,-103.95 0,-105.129 0,-105.129M0,-97.586C2.828,-97.351 21.567,-96.054 38.657,-89.925C38.539,-81.793 39.482,-66 45.61,-45.493C42.192,-38.893 29.817,-19.446 0,-8.015C-14.732,-13.672 -26.871,-21.804 -36.418,-32.411C-41.368,-37.95 -44.314,-42.782 -45.729,-45.493C-39.6,-66 -38.775,-81.911 -38.775,-89.925C-21.568,-96.054 -2.828,-97.468 0,-97.586" style="fill:rgb(221,221,221);fill-rule:nonzero;"/>
        </g>
        <g transform="matrix(-1,0,0,1,3053.2,132.63)">
            <rect x="1451.1" y="593.105" width="151" height="129" style="fill:none;stroke:black;stroke-width:3px;"/>
        </g>
        <g transform="matrix(-1,0,0,1,4710.45,207.69)">
            <rect x="2317.22" y="593.575" width="76" height="53" style="fill:rgb(242,242,242);stroke:black;stroke-width:3px;"/>
        </g>
        <g transform="matrix(-1,0,0,1,4558.45,207.69)">
            <rect x="2241.22" y="593.575" width="76" height="53" style="fill:rgb(242,242,242);stroke:black;stroke-width:3px;"/>
        </g>
        <g transform="matrix(1,0,0,1,1198.72,620.765)">
            <path d="M0,-105L110.576,-105C118.276,-105 124.576,-98.7 124.576,-91L124.576,-14C124.576,-6.3 130.876,0 138.576,0L252,0" style="fill:none;fill-rule:nonzero;stroke:black;stroke-width:8px;"/>
        </g>
        <g transform="matrix(1,0,0,1,1198.72,795.765)">
            <path d="M0,95L110.576,95C118.276,95 124.576,88.7 124.576,81L124.576,14C124.576,6.3 130.876,0 138.576,0L252,0" style="fill:none;fill-rule:nonzero;stroke:black;stroke-width:8px;"/>
        </g>
        <g transform="matrix(1,0,0,1,1145.72,978.265)">
            <path d="M0,-175L39,-175C46.7,-175 53,-168.7 53,-161L53,-14C53,-6.3 46.7,0 39,0L0,0" style="fill:none;fill-rule:nonzero;stroke:black;stroke-width:8px;"/>
        </g>
        <g transform="matrix(1,0,0,1,1145.72,603.265)">
            <path d="M0,-175L39,-175C46.7,-175 53,-168.7 53,-161L53,-14C53,-6.3 46.7,0 39,0L0,0" style="fill:none;fill-rule:nonzero;stroke:black;stroke-width:8px;"/>
        </g>
        <g transform="matrix(-1,0,0,1,4071.57,850.63)">
            <rect x="1602.35" y="234.105" width="866.875" height="129" style="fill:white;stroke:black;stroke-width:3px;"/>
        </g>
        <g transform="matrix(-1,0,0,1,4862.45,925.69)">
            <rect x="2393.22" y="234.575" width="76" height="53" style="fill:rgb(221,221,221);stroke:black;stroke-width:3px;"/>
        </g>
        <g transform="matrix(1.11505,0,0,1,-270.142,0)">
            <text x="2348.12px" y="669.848px" style="font-family:'LucidaGrande', 'Lucida Grande', sans-serif;font-weight:500;font-size:37.667px;">-</text>
        </g>
        <g transform="matrix(1.11505,0,0,1,-261.399,0)">
            <text x="2272.12px" y="669.848px" style="font-family:'LucidaGrande', 'Lucida Grande', sans-serif;font-weight:500;font-size:37.667px;">-</text>
        </g>
        <text x="2270.5px" y="614.746px" style="font-family:'LucidaGrande', 'Lucida Grande', sans-serif;font-weight:500;font-size:17px;">1<tspan x="2279.21px " y="614.746px ">5</tspan></text>
        <g>
            <text x="2348.31px" y="614.746px" style="font-family:'LucidaGrande', 'Lucida Grande', sans-serif;font-weight:500;font-size:17px;">1<tspan x="2357.02px " y="614.746px ">6</tspan></text>
            <text x="2406.95px" y="614.746px" style="font-family:'LucidaGrande', 'Lucida Grande', sans-serif;font-weight:500;font-size:24px;">T<tspan x="2419.84px 2432.3px 2439px 2449.98px " y="614.746px 614.746px 614.746px 614.746px ">otal</tspan></text>
        </g>
        <g transform="matrix(0.895451,0,0,1,170.835,0)">
            <text x="1634.01px" y="819.14px" style="font-family:'LucidaGrande', 'Lucida Grande', sans-serif;font-weight:500;font-size:62.498px;">G<tspan x="1675.43px 1706.19px 1760.79px 1791.86px 1807.88px 1843.65px 1859.68px 1909.39px 1923.71px 1958.75px 1993.78px 2024.85px " y="819.14px 819.14px 819.14px 819.14px 819.14px 819.14px 819.14px 819.14px 819.14px 819.14px 819.14px 819.14px ">ame 2 Winner</tspan></text>
        </g>
        <g transform="matrix(1.11505,0,0,1,-278.886,0)">
            <text x="2424.12px" y="844.848px" style="font-family:'LucidaGrande', 'Lucida Grande', sans-serif;font-weight:500;font-size:37.667px;">-</text>
        </g>
        <text x="2152.01px" y="811.662px" style="font-family:'LucidaGrande', 'Lucida Grande', sans-serif;font-weight:500;font-size:32px;">(<tspan x="2157.46px 2162.63px 2176.18px 2181.35px " y="811.662px 811.662px 811.662px 811.662px "> - )</tspan></text>
        <g transform="matrix(1.11505,0,0,1,-270.142,0)">
            <text x="2348.12px" y="844.848px" style="font-family:'LucidaGrande', 'Lucida Grande', sans-serif;font-weight:500;font-size:37.667px;">-</text>
        </g>
        <g transform="matrix(1.11505,0,0,1,-261.399,0)">
            <text x="2272.12px" y="844.848px" style="font-family:'LucidaGrande', 'Lucida Grande', sans-serif;font-weight:500;font-size:37.667px;">-</text>
        </g>
        <text x="2270.5px" y="789.746px" style="font-family:'LucidaGrande', 'Lucida Grande', sans-serif;font-weight:500;font-size:17px;">1<tspan x="2279.21px " y="789.746px ">5</tspan></text>
        <g>
            <text x="2348.31px" y="789.746px" style="font-family:'LucidaGrande', 'Lucida Grande', sans-serif;font-weight:500;font-size:17px;">1<tspan x="2357.02px " y="789.746px ">6</tspan></text>
            <text x="2406.95px" y="789.746px" style="font-family:'LucidaGrande', 'Lucida Grande', sans-serif;font-weight:500;font-size:24px;">T<tspan x="2419.84px 2432.3px 2439px 2449.98px " y="789.746px 789.746px 789.746px 789.746px ">otal</tspan></text>
        </g>
        <text x="508.346px" y="307.079px" style="font-family:'LucidaGrande', 'Lucida Grande', sans-serif;font-weight:500;font-size:42px;">W<tspan x="543.225px 565.575px 587.924px 611.422px 631.782px 644.021px 669.529px 695.037px 716.012px 741.52px " y="307.079px 307.079px 307.079px 307.079px 307.079px 307.079px 307.079px 307.079px 307.079px 307.079px ">eeks 13/14</tspan></text>
        <g>
            <text x="55.796px" y="439.337px" style="font-family:'LucidaGrande', 'Lucida Grande', sans-serif;font-weight:500;font-size:42px;">#<tspan x="80.463px " y="439.337px ">1</tspan></text>
            <text x="55.796px" y="614.347px" style="font-family:'LucidaGrande', 'Lucida Grande', sans-serif;font-weight:500;font-size:42px;">#<tspan x="80.463px " y="614.347px ">4</tspan></text>
            <text x="55.796px" y="814.347px" style="font-family:'LucidaGrande', 'Lucida Grande', sans-serif;font-weight:500;font-size:42px;">#<tspan x="80.463px " y="814.347px ">2</tspan></text>
            <text x="55.796px" y="989.357px" style="font-family:'LucidaGrande', 'Lucida Grande', sans-serif;font-weight:500;font-size:42px;">#<tspan x="80.463px " y="989.357px ">3</tspan></text>
        </g>
        <text x="1465.9px" y="1246.25px" style="font-family:'LucidaGrande', 'Lucida Grande', sans-serif;font-weight:500;font-size:36px;">G<tspan x="1489.94px 1507.84px 1539.47px 1557.55px 1566.96px " y="1246.25px 1246.25px 1246.25px 1246.25px 1246.25px ">ame 4</tspan></text>
        <g transform="matrix(0.895451,0,0,1,170.835,0)">
            <text x="1634.01px" y="1178.14px" style="font-family:'LucidaGrande', 'Lucida Grande', sans-serif;font-weight:500;font-size:62.498px;">G<tspan x="1674.8px 1704.94px 1758.92px 1789.36px 1804.76px 1839.9px 1855.3px 1884.25px 1918.27px 1945.75px 1976.2px " y="1178.14px 1178.14px 1178.14px 1178.14px 1178.14px 1178.14px 1178.14px 1178.14px 1178.14px 1178.14px 1178.14px ">ame 1 Loser</tspan></text>
        </g>
        <g transform="matrix(1.11505,0,0,1,-278.886,0)">
            <text x="2424.12px" y="1203.85px" style="font-family:'LucidaGrande', 'Lucida Grande', sans-serif;font-weight:500;font-size:37.667px;">-</text>
        </g>
        <text x="2152.01px" y="1170.66px" style="font-family:'LucidaGrande', 'Lucida Grande', sans-serif;font-weight:500;font-size:32px;">(<tspan x="2157.46px 2162.63px 2176.18px 2181.35px " y="1170.66px 1170.66px 1170.66px 1170.66px "> - )</tspan></text>
        <g transform="matrix(-1,0,0,1,3053.2,850.691)">
            <rect x="1451.1" y="234.044" width="151" height="129.061" style="fill:rgb(221,221,221);stroke:black;stroke-width:3px;"/>
        </g>
        <g transform="matrix(1,0,0,1,1525.3,1093.17)">
            <path d="M0,112.199L1.297,112.671L2.594,112.199C45.493,96.996 58.104,66.353 58.575,65.056L59.047,63.761L58.693,62.464C49.618,33.707 51.622,14.024 51.622,13.907L51.976,11.078L49.383,10.017C27.814,0.942 2.594,-0.354 1.532,-0.472L1.062,-0.472C0,-0.472 -25.221,0.824 -46.671,10.017L-49.264,11.078L-49.028,13.907C-49.028,14.142 -47.143,33.707 -56.1,62.464L-56.453,63.761L-55.981,65.056C-55.393,66.353 -42.899,96.878 0,112.199" style="fill:white;fill-rule:nonzero;"/>
        </g>
        <g transform="matrix(1,0,0,1,1567.61,1186.15)">
            <path d="M0,-75.193C-18.622,-83.089 -41.015,-84.15 -41.015,-84.15C-41.015,-84.15 -63.407,-83.089 -82.029,-75.193C-82.029,-75.193 -80.144,-57.279 -88.394,-30.76C-88.394,-30.76 -83.679,-2.357 -41.015,8.957C1.768,-2.357 6.481,-30.76 6.481,-30.76C-1.886,-57.161 0,-75.193 0,-75.193" style="fill:rgb(247,247,247);fill-rule:nonzero;"/>
        </g>
        <g transform="matrix(1,0,0,1,1526.6,1118.62)">
            <path d="M0,53.86C17.442,53.86 32.528,43.017 40.425,26.871C32.528,10.96 17.442,0 0,0C-17.443,0 -32.528,10.842 -40.425,26.989C-32.528,43.017 -17.443,53.86 0,53.86" style="fill:rgb(221,221,221);fill-rule:nonzero;"/>
        </g>
        <g transform="matrix(1,0,0,1,1526.6,1124.52)">
            <path d="M0,42.192C14.379,42.192 26.989,33.707 33.472,21.096C26.989,8.485 14.379,0 0,0C-14.379,0 -26.989,8.485 -33.472,21.096C-26.989,33.707 -14.379,42.192 0,42.192" style="fill:rgb(247,247,247);fill-rule:nonzero;"/>
        </g>
        <g transform="matrix(0,1,1,0,1521.59,1136.24)">
            <path d="M-7.012,-3.241L2.653,-3.241C2.77,-4.539 3.007,-5.717 3.242,-7.012L-6.422,-7.012C-6.658,-5.717 -6.894,-4.421 -7.012,-3.241" style="fill:rgb(221,221,221);fill-rule:nonzero;"/>
        </g>
        <g transform="matrix(0,1,1,0,1541.33,1136.06)">
            <path d="M-6.483,-2.712L3.183,-2.712C2.947,-3.891 2.83,-5.187 2.71,-6.483L-6.954,-6.483C-6.837,-5.305 -6.6,-4.009 -6.483,-2.712" style="fill:rgb(221,221,221);fill-rule:nonzero;"/>
        </g>
        <g transform="matrix(0,1,1,0,1528.13,1135.59)">
            <path d="M-6.835,-3.064L2.829,-3.064C2.829,-4.36 2.947,-5.539 3.064,-6.835L-6.6,-6.835C-6.718,-5.539 -6.835,-4.243 -6.835,-3.064" style="fill:rgb(221,221,221);fill-rule:nonzero;"/>
        </g>
        <g transform="matrix(0,1,1,0,1534.79,1135.53)">
            <path d="M-6.659,-2.889L3.006,-2.889C2.887,-4.186 2.887,-5.364 2.887,-6.659L-6.776,-6.659C-6.776,-5.482 -6.776,-4.186 -6.659,-2.889" style="fill:rgb(221,221,221);fill-rule:nonzero;"/>
        </g>
        <g transform="matrix(1,0,0,1,1491.83,1131)">
            <path d="M0,18.503C2.239,10.253 17.207,3.653 34.768,3.653C52.21,3.653 67.179,10.253 69.535,18.386C70.36,17.089 71.067,15.91 71.774,14.496C71.657,14.378 71.657,14.261 71.539,14.024C66.589,5.774 52.21,0 34.768,0C17.325,0 2.946,5.893 -2.004,14.143C-2.004,14.261 -2.122,14.378 -2.239,14.496C-1.532,15.91 -0.825,17.207 0,18.503" style="fill:rgb(221,221,221);fill-rule:nonzero;"/>
        </g>
        <g transform="matrix(1,0,0,1,1526.6,1201.83)">
            <path d="M0,-105.129C0,-105.129 -25.457,-103.95 -46.436,-94.993C-46.436,-94.993 -44.314,-74.84 -53.743,-44.903C-53.743,-44.903 -41.839,-14.851 0,0C41.722,-14.851 53.743,-44.903 53.743,-44.903C44.314,-74.957 46.436,-94.993 46.436,-94.993C25.457,-103.95 0,-105.129 0,-105.129M0,-97.586C2.828,-97.351 21.567,-96.054 38.657,-89.925C38.539,-81.793 39.482,-66 45.61,-45.493C42.192,-38.893 29.817,-19.446 0,-8.015C-14.732,-13.672 -26.871,-21.804 -36.418,-32.411C-41.368,-37.95 -44.314,-42.782 -45.729,-45.493C-39.6,-66 -38.775,-81.911 -38.775,-89.925C-21.568,-96.054 -2.828,-97.468 0,-97.586" style="fill:rgb(221,221,221);fill-rule:nonzero;"/>
        </g>
        <g transform="matrix(-1,0,0,1,3053.2,850.63)">
            <rect x="1451.1" y="234.105" width="151" height="129" style="fill:none;stroke:black;stroke-width:3px;"/>
        </g>
        <g transform="matrix(-1,0,0,1,4710.45,925.69)">
            <rect x="2317.22" y="234.575" width="76" height="53" style="fill:rgb(242,242,242);stroke:black;stroke-width:3px;"/>
        </g>
        <g transform="matrix(-1,0,0,1,4558.45,925.69)">
            <rect x="2241.22" y="234.575" width="76" height="53" style="fill:rgb(242,242,242);stroke:black;stroke-width:3px;"/>
        </g>
        <g transform="matrix(-1,0,0,1,4071.57,1200.63)">
            <rect x="1602.35" y="59.105" width="866.875" height="129" style="fill:white;stroke:black;stroke-width:3px;"/>
        </g>
        <g transform="matrix(-1,0,0,1,4862.45,1275.69)">
            <rect x="2393.22" y="59.575" width="76" height="53" style="fill:rgb(221,221,221);stroke:black;stroke-width:3px;"/>
        </g>
        <g transform="matrix(-1,0,0,1,3053.2,1200.69)">
            <rect x="1451.1" y="59.044" width="151" height="129.061" style="fill:rgb(221,221,221);stroke:black;stroke-width:3px;"/>
        </g>
        <g transform="matrix(1,0,0,1,1525.3,1268.17)">
            <path d="M0,112.199L1.297,112.671L2.594,112.199C45.493,96.996 58.104,66.353 58.575,65.056L59.047,63.761L58.693,62.464C49.618,33.707 51.622,14.024 51.622,13.907L51.976,11.078L49.383,10.017C27.814,0.942 2.594,-0.354 1.532,-0.472L1.062,-0.472C0,-0.472 -25.221,0.824 -46.671,10.017L-49.264,11.078L-49.028,13.907C-49.028,14.142 -47.143,33.707 -56.1,62.464L-56.453,63.761L-55.981,65.056C-55.393,66.353 -42.899,96.878 0,112.199" style="fill:white;fill-rule:nonzero;"/>
        </g>
        <g transform="matrix(1,0,0,1,1567.61,1361.15)">
            <path d="M0,-75.193C-18.622,-83.089 -41.015,-84.15 -41.015,-84.15C-41.015,-84.15 -63.407,-83.089 -82.029,-75.193C-82.029,-75.193 -80.144,-57.279 -88.394,-30.76C-88.394,-30.76 -83.679,-2.357 -41.015,8.957C1.768,-2.357 6.481,-30.76 6.481,-30.76C-1.886,-57.161 0,-75.193 0,-75.193" style="fill:rgb(247,247,247);fill-rule:nonzero;"/>
        </g>
        <g transform="matrix(1,0,0,1,1526.6,1293.62)">
            <path d="M0,53.86C17.442,53.86 32.528,43.017 40.425,26.871C32.528,10.96 17.442,0 0,0C-17.443,0 -32.528,10.842 -40.425,26.989C-32.528,43.017 -17.443,53.86 0,53.86" style="fill:rgb(221,221,221);fill-rule:nonzero;"/>
        </g>
        <g transform="matrix(1,0,0,1,1526.6,1299.52)">
            <path d="M0,42.192C14.379,42.192 26.989,33.707 33.472,21.096C26.989,8.485 14.379,0 0,0C-14.379,0 -26.989,8.485 -33.472,21.096C-26.989,33.707 -14.379,42.192 0,42.192" style="fill:rgb(247,247,247);fill-rule:nonzero;"/>
        </g>
        <g transform="matrix(0,1,1,0,1521.59,1311.24)">
            <path d="M-7.012,-3.241L2.653,-3.241C2.77,-4.539 3.007,-5.717 3.242,-7.012L-6.422,-7.012C-6.658,-5.717 -6.894,-4.421 -7.012,-3.241" style="fill:rgb(221,221,221);fill-rule:nonzero;"/>
        </g>
        <g transform="matrix(0,1,1,0,1541.33,1311.06)">
            <path d="M-6.483,-2.712L3.183,-2.712C2.947,-3.891 2.83,-5.187 2.71,-6.483L-6.954,-6.483C-6.837,-5.305 -6.6,-4.009 -6.483,-2.712" style="fill:rgb(221,221,221);fill-rule:nonzero;"/>
        </g>
        <g transform="matrix(0,1,1,0,1528.13,1310.59)">
            <path d="M-6.835,-3.064L2.829,-3.064C2.829,-4.36 2.947,-5.539 3.064,-6.835L-6.6,-6.835C-6.718,-5.539 -6.835,-4.243 -6.835,-3.064" style="fill:rgb(221,221,221);fill-rule:nonzero;"/>
        </g>
        <g transform="matrix(0,1,1,0,1534.79,1310.53)">
            <path d="M-6.659,-2.889L3.006,-2.889C2.887,-4.186 2.887,-5.364 2.887,-6.659L-6.776,-6.659C-6.776,-5.482 -6.776,-4.186 -6.659,-2.889" style="fill:rgb(221,221,221);fill-rule:nonzero;"/>
        </g>
        <g transform="matrix(1,0,0,1,1491.83,1306)">
            <path d="M0,18.503C2.239,10.253 17.207,3.653 34.768,3.653C52.21,3.653 67.179,10.253 69.535,18.386C70.36,17.089 71.067,15.91 71.774,14.496C71.657,14.378 71.657,14.261 71.539,14.024C66.589,5.774 52.21,0 34.768,0C17.325,0 2.946,5.893 -2.004,14.143C-2.004,14.261 -2.122,14.378 -2.239,14.496C-1.532,15.91 -0.825,17.207 0,18.503" style="fill:rgb(221,221,221);fill-rule:nonzero;"/>
        </g>
        <g transform="matrix(1,0,0,1,1526.6,1376.83)">
            <path d="M0,-105.129C0,-105.129 -25.457,-103.95 -46.436,-94.993C-46.436,-94.993 -44.314,-74.84 -53.743,-44.903C-53.743,-44.903 -41.839,-14.851 0,0C41.722,-14.851 53.743,-44.903 53.743,-44.903C44.314,-74.957 46.436,-94.993 46.436,-94.993C25.457,-103.95 0,-105.129 0,-105.129M0,-97.586C2.828,-97.351 21.567,-96.054 38.657,-89.925C38.539,-81.793 39.482,-66 45.61,-45.493C42.192,-38.893 29.817,-19.446 0,-8.015C-14.732,-13.672 -26.871,-21.804 -36.418,-32.411C-41.368,-37.95 -44.314,-42.782 -45.729,-45.493C-39.6,-66 -38.775,-81.911 -38.775,-89.925C-21.568,-96.054 -2.828,-97.468 0,-97.586" style="fill:rgb(221,221,221);fill-rule:nonzero;"/>
        </g>
        <g transform="matrix(-1,0,0,1,3053.2,1200.63)">
            <rect x="1451.1" y="59.105" width="151" height="129" style="fill:none;stroke:black;stroke-width:3px;"/>
        </g>
        <g transform="matrix(-1,0,0,1,4710.45,1275.69)">
            <rect x="2317.22" y="59.575" width="76" height="53" style="fill:rgb(242,242,242);stroke:black;stroke-width:3px;"/>
        </g>
        <g transform="matrix(-1,0,0,1,4558.45,1275.69)">
            <rect x="2241.22" y="59.575" width="76" height="53" style="fill:rgb(242,242,242);stroke:black;stroke-width:3px;"/>
        </g>
        <g transform="matrix(1.11505,0,0,1,-270.142,0)">
            <text x="2348.12px" y="1203.85px" style="font-family:'LucidaGrande', 'Lucida Grande', sans-serif;font-weight:500;font-size:37.667px;">-</text>
        </g>
        <g transform="matrix(1.11505,0,0,1,-261.399,0)">
            <text x="2272.12px" y="1203.85px" style="font-family:'LucidaGrande', 'Lucida Grande', sans-serif;font-weight:500;font-size:37.667px;">-</text>
        </g>
        <text x="2270.5px" y="1148.75px" style="font-family:'LucidaGrande', 'Lucida Grande', sans-serif;font-weight:500;font-size:17px;">1<tspan x="2279.21px " y="1148.75px ">5</tspan></text>
        <g>
            <text x="2348.31px" y="1148.75px" style="font-family:'LucidaGrande', 'Lucida Grande', sans-serif;font-weight:500;font-size:17px;">1<tspan x="2357.02px " y="1148.75px ">6</tspan></text>
            <text x="2406.95px" y="1148.75px" style="font-family:'LucidaGrande', 'Lucida Grande', sans-serif;font-weight:500;font-size:24px;">T<tspan x="2419.84px 2432.3px 2439px 2449.98px " y="1148.75px 1148.75px 1148.75px 1148.75px ">otal</tspan></text>
        </g>
        <g transform="matrix(0.895451,0,0,1,170.835,0)">
            <text x="1634.01px" y="1353.14px" style="font-family:'LucidaGrande', 'Lucida Grande', sans-serif;font-weight:500;font-size:62.498px;">G<tspan x="1674.8px 1704.94px 1758.92px 1789.36px 1804.76px 1839.9px 1855.3px 1884.25px 1918.27px 1945.75px 1976.2px " y="1353.14px 1353.14px 1353.14px 1353.14px 1353.14px 1353.14px 1353.14px 1353.14px 1353.14px 1353.14px 1353.14px ">ame 2 Loser</tspan></text>
        </g>
        <g transform="matrix(1.11505,0,0,1,-278.886,0)">
            <text x="2424.12px" y="1378.85px" style="font-family:'LucidaGrande', 'Lucida Grande', sans-serif;font-weight:500;font-size:37.667px;">-</text>
        </g>
        <text x="2152.01px" y="1345.66px" style="font-family:'LucidaGrande', 'Lucida Grande', sans-serif;font-weight:500;font-size:32px;">(<tspan x="2157.46px 2162.63px 2176.18px 2181.35px " y="1345.66px 1345.66px 1345.66px 1345.66px "> - )</tspan></text>
        <g transform="matrix(1.11505,0,0,1,-270.142,0)">
            <text x="2348.12px" y="1378.85px" style="font-family:'LucidaGrande', 'Lucida Grande', sans-serif;font-weight:500;font-size:37.667px;">-</text>
        </g>
        <g transform="matrix(1.11505,0,0,1,-261.399,0)">
            <text x="2272.12px" y="1378.85px" style="font-family:'LucidaGrande', 'Lucida Grande', sans-serif;font-weight:500;font-size:37.667px;">-</text>
        </g>
        <text x="2270.5px" y="1323.75px" style="font-family:'LucidaGrande', 'Lucida Grande', sans-serif;font-weight:500;font-size:17px;">1<tspan x="2279.21px " y="1323.75px ">5</tspan></text>
        <g>
            <text x="2348.31px" y="1323.75px" style="font-family:'LucidaGrande', 'Lucida Grande', sans-serif;font-weight:500;font-size:17px;">1<tspan x="2357.02px " y="1323.75px ">6</tspan></text>
            <text x="2406.95px" y="1323.75px" style="font-family:'LucidaGrande', 'Lucida Grande', sans-serif;font-weight:500;font-size:24px;">T<tspan x="2419.84px 2432.3px 2439px 2449.98px " y="1323.75px 1323.75px 1323.75px 1323.75px ">otal</tspan></text>
        </g>
        <text x="1832.83px" y="307.079px" style="font-family:'LucidaGrande', 'Lucida Grande', sans-serif;font-weight:500;font-size:42px;">W<tspan x="1867.5px 1889.64px 1911.78px 1935.06px 1955.21px 1967.24px 1992.54px 2017.84px 2038.6px 2063.9px " y="307.079px 307.079px 307.079px 307.079px 307.079px 307.079px 307.079px 307.079px 307.079px 307.079px ">eeks 15/16</tspan></text>
        <g transform="matrix(1,0,0,1,1215.95,92.7039)">
            <path d="M0,100.319L0,84.467L-27.567,84.467L-27.567,0.769L-43.24,0.769L-43.24,100.319L0,100.319ZM302.271,43.02L278.356,43.02L278.356,16.35C279.154,16.043 279.679,15.671 280.21,15.663C285.311,15.584 290.411,15.589 295.513,15.527C307.53,15.384 305.657,17.211 305.986,4.747C306.077,1.314 304.839,0.289 301.569,0.379C295.099,0.555 288.619,0.431 282.144,0.431L262.546,0.431L262.546,100.226L278.057,100.226L278.057,58.431L302.271,58.431L302.271,43.02ZM84.505,0.889L67.545,0.889C70.688,10.192 73.171,19.027 76.626,27.465C84.585,46.902 89.217,66.799 87.157,87.945C86.855,91.053 86.901,94.241 87.244,97.341C87.37,98.483 88.757,100.329 89.675,100.396C94.063,100.718 98.49,100.541 103.486,100.541C103.486,88.906 103.072,78.139 103.637,67.423C103.99,60.714 105.359,53.96 107.1,47.447C109.213,39.537 112.175,31.851 114.812,24.083C117.418,16.407 120.077,8.749 122.937,0.431C118.538,0.431 115.011,0.662 111.527,0.371C107.357,0.024 105.407,1.219 104.299,5.721C101.795,15.89 98.384,25.836 95.092,36.696C91.363,24.086 87.939,12.506 84.505,0.889M201.518,0.682L201.518,63.522C201.518,74.309 201.619,85.097 201.461,95.881C201.41,99.391 202.467,101.049 206.159,100.592C207.704,100.402 209.324,100.362 210.856,100.6C216.496,101.477 218.232,99.267 218.01,93.567C217.561,82.082 217.876,70.568 217.876,58.315L241.742,58.315L241.742,42.969L218.345,42.969L218.345,15.533C226.442,15.533 234.078,15.699 241.695,15.392C243.21,15.331 245.74,13.618 245.925,12.386C246.485,8.634 246.128,4.745 246.128,0.682L201.518,0.682ZM-89.154,100.313L-89.154,61.994C-85.842,61.994 -83.13,62.026 -80.419,61.989C-69.611,61.842 -60.521,55.373 -58.979,44.794C-57.732,36.235 -57.913,27.278 -58.834,18.645C-59.877,8.862 -66.531,2.43 -76.008,1.206C-85.359,-0.002 -94.989,0.943 -104.532,0.943L-104.532,100.313L-89.154,100.313ZM66.167,99.977C66.29,99.589 66.434,99.383 66.396,99.217C59.417,67.55 52.376,35.896 45.473,4.212C44.103,-2.078 39.35,1.086 36.012,0.506C33.253,0.028 31.072,0.236 30.217,4.23C25.021,28.479 19.417,52.639 13.981,76.836C12.252,84.533 10.621,92.252 8.813,100.566C11.991,100.566 14.124,100.565 16.256,100.566C24.548,100.573 24.553,100.574 26.356,92.136C27.048,88.899 27.52,85.596 28.495,82.448C28.848,81.31 30.338,79.784 31.382,79.725C36.405,79.441 41.453,79.597 46.303,79.597C47.004,82.391 47.625,84.441 48.027,86.533C50.861,101.285 50.847,101.289 65.344,100.47C65.515,100.46 65.675,100.279 66.167,99.977M370.946,30.238C369.354,23.324 369.112,16.791 366.369,11.573C361.469,2.254 352.576,-1.631 342.152,-0.413C330.741,0.921 323.962,7.481 321.148,18.685C317.336,33.873 321.472,46.146 332.534,51.961C335.985,53.775 339.525,55.658 343.254,56.656C350.315,58.547 354.068,62.504 353.528,70.027C353.36,72.363 353.369,74.714 353.163,77.046C352.621,83.165 349.91,85.643 344.188,85.363C338.812,85.1 335.882,81.986 335.615,76.307C335.536,74.638 335.345,72.975 335.182,71.031L319.168,71.031C319.168,73.844 319.08,75.78 319.182,77.705C319.765,88.733 326.505,97.576 336.443,100.424C347.439,103.576 358.575,100.406 364.524,92.43C371.103,83.611 371.623,61.291 365.592,51.993C360.896,44.754 352.837,43.414 345.723,40.484C336.62,36.734 334.416,32.37 336.688,22.612C337.811,17.795 340.431,15.654 345.353,15.811C350.224,15.965 352.259,18.893 353.104,23.107C353.559,25.364 353.752,27.674 354.1,30.238L370.946,30.238ZM182.375,50.451C182.375,41.434 182.536,32.412 182.337,23.399C182.036,9.769 171.253,-0.653 157.763,-0.633C143.868,-0.612 133.134,9.864 133.039,23.794C132.919,41.436 132.925,59.081 133.042,76.723C133.137,91.055 143.838,101.699 157.843,101.671C171.619,101.643 182.204,91.013 182.358,76.916C182.455,68.096 182.377,59.273 182.375,50.451M-128.715,-20.299L390.514,-20.299L390.514,120.618L-128.715,120.618L-128.715,-20.299Z" style="fill:rgb(255,0,0);fill-rule:nonzero;"/>
        </g>
        <g transform="matrix(1,0,0,1,1606.6,235.985)">
            <path d="M0,-185.719L0,-172.447L-672.755,-172.447L-672.755,-13.452L-0.175,-13.452L-0.175,0L-685.752,0L-685.752,-185.719L0,-185.719Z" style="fill:rgb(255,0,0);fill-rule:nonzero;"/>
        </g>
        <g transform="matrix(1,0,0,1,1365.18,143.645)">
            <path d="M0,-0.679C0,-8.907 -0.039,-17.136 0.013,-25.364C0.055,-31.962 2.676,-35.001 8.242,-35.104C13.855,-35.209 17.017,-32.319 17.092,-25.826C17.287,-8.981 17.243,7.87 17.03,24.715C16.952,30.909 13.364,34.53 8.379,34.445C2.841,34.35 0.035,30.892 0.008,24.006C-0.024,15.778 0,7.549 0,-0.679" style="fill:rgb(255,0,0);fill-rule:nonzero;"/>
        </g>
        <g transform="matrix(-1,0,0,1,1247.91,129.89)">
            <path d="M-11.453,26.69L0,26.69C-1.749,17.655 -3.436,8.937 -5.124,0.217C-5.491,0.145 -5.859,0.073 -6.226,0C-7.927,8.684 -9.628,17.368 -11.453,26.69" style="fill:rgb(255,0,0);fill-rule:nonzero;"/>
        </g>
        <g transform="matrix(0,-1,-1,0,1150.56,131.733)">
            <path d="M-7.717,23.603L22.917,23.603C24.749,10.887 22.148,7.726 10.175,7.718C8.802,7.717 7.429,7.718 6.056,7.718C-6.723,7.72 -8.863,10.095 -7.717,23.603" style="fill:rgb(255,0,0);fill-rule:nonzero;"/>
        </g>
        <g transform="matrix(1,0,0,1,1013.67,210.657)">
            <path d="M0,-136.411C-2.198,-138.926 -3.986,-141.659 -5.423,-144.519C-6.86,-141.659 -8.649,-138.926 -10.848,-136.411C-24.185,-121.152 -46.724,-119.144 -62.234,-131.424L-62.234,-29.893C-62.017,-18.08 -52.921,-14.085 -44.522,-10.972L-37.951,-9.133C-28.083,-7.873 -18.5,-5.455 -5.48,8.108C-5.461,8.081 -5.442,8.057 -5.423,8.03C-5.404,8.057 -5.386,8.081 -5.366,8.108C7.653,-5.455 17.236,-7.873 27.104,-9.133L33.675,-10.972C42.074,-14.085 51.169,-18.08 51.388,-29.893L51.388,-131.424C35.876,-119.144 13.338,-121.152 0,-136.411" style="fill:rgb(29,55,103);fill-rule:nonzero;"/>
        </g>
        <g transform="matrix(-0.789928,-0.6132,-0.6132,0.789928,986.02,110.312)">
            <path d="M-13.564,-41.477C-13.564,-41.477 1.802,-32.772 0.129,-16.968C-1.524,-1.368 -13.564,4.634 -13.564,4.634C-13.564,4.634 -29.239,-3.797 -27.795,-20.853C-26.595,-35.016 -13.564,-41.477 -13.564,-41.477" style="fill:white;fill-rule:nonzero;"/>
        </g>
        <g transform="matrix(0.890341,0.455293,0.455293,-0.890341,1004.59,94.2883)">
            <path d="M-0.217,-2.155L8.575,-2.155C8.696,-1.738 8.822,-1.322 8.95,-0.909L0.141,-0.909C0.015,-1.319 -0.105,-1.735 -0.217,-2.155" style="fill:rgb(29,55,103);fill-rule:nonzero;"/>
        </g>
        <g transform="matrix(0.890302,0.45537,0.45537,-0.890302,1001.87,97.6704)">
            <path d="M-0.16,-2.093L8.402,-2.093C8.498,-1.63 8.603,-1.168 8.712,-0.706L0.044,-0.706C-0.034,-1.164 -0.103,-1.626 -0.16,-2.093" style="fill:rgb(29,55,103);fill-rule:nonzero;"/>
        </g>
        <g transform="matrix(0.890298,0.455378,0.455378,-0.890298,999.764,101.276)">
            <path d="M-0.168,-1.969L8.094,-1.969C8.116,-1.55 8.147,-1.134 8.189,-0.724L-0.143,-0.724C-0.158,-1.139 -0.166,-1.554 -0.168,-1.969" style="fill:rgb(29,55,103);fill-rule:nonzero;"/>
        </g>
        <g transform="matrix(-0.589627,0.807676,0.807676,0.589627,1018.06,90.6383)">
            <path d="M3.099,-6.245C3.531,-6.402 3.977,-6.557 4.434,-6.708L3.099,1.676C2.65,1.784 2.21,1.892 1.787,2.001L3.099,-6.245Z" style="fill:rgb(29,55,103);fill-rule:nonzero;"/>
        </g>
        <g transform="matrix(0.890309,0.455356,0.455356,-0.890309,1007.62,91.2575)">
            <path d="M-0.203,-2.188L8.57,-2.188C8.735,-1.725 8.903,-1.268 9.071,-0.819L0.358,-0.82C0.165,-1.266 -0.022,-1.724 -0.203,-2.188" style="fill:rgb(29,55,103);fill-rule:nonzero;"/>
        </g>
        <g transform="matrix(0.678026,0.735038,0.735038,-0.678026,1013.58,88.7334)">
            <path d="M3.516,-1.165C3.678,4.744 4.298,9.143 4.298,9.143L3.516,8.955C3.516,8.955 1.828,5.032 1.476,-1.909L3.516,-1.165Z" style="fill:rgb(29,55,103);fill-rule:nonzero;"/>
        </g>
        <g transform="matrix(-0.922561,-0.385852,-0.385852,0.922561,991.461,120.84)">
            <path d="M-3.24,-19.761C-1.571,-9.683 -2.319,0.815 -2.319,0.815L-3.24,0.954C-3.24,0.954 -3.158,-10.098 -5.006,-19.641L-3.24,-19.761Z" style="fill:rgb(29,55,103);fill-rule:nonzero;"/>
        </g>
        <g transform="matrix(1,0,0,1,1052.59,106.764)">
            <path d="M0,-14.97L1.89,-9.591L7.856,-9.591L3.097,-5.798L4.911,0L0,-3.75L-4.908,-0.228L-3.021,-5.837L-7.626,-9.591L-1.885,-9.591L0,-14.97Z" style="fill:white;fill-rule:nonzero;"/>
        </g>
        <g transform="matrix(1,0,0,1,1052.59,124.349)">
            <path d="M0,-14.97L1.89,-9.589L7.856,-9.589L3.097,-5.801L4.911,0L0,-3.751L-4.908,-0.226L-3.021,-5.836L-7.626,-9.589L-1.885,-9.589L0,-14.97Z" style="fill:white;fill-rule:nonzero;"/>
        </g>
        <g transform="matrix(1,0,0,1,1033.71,124.349)">
            <path d="M0,-14.97L1.89,-9.589L7.852,-9.589L3.096,-5.801L4.911,0L0,-3.751L-4.906,-0.226L-3.022,-5.836L-7.627,-9.589L-1.887,-9.589L0,-14.97Z" style="fill:white;fill-rule:nonzero;"/>
        </g>
        <g transform="matrix(1,0,0,1,1033.56,106.764)">
            <path d="M0,-14.97L1.888,-9.591L7.857,-9.591L3.099,-5.798L4.909,0L0,-3.75L-4.906,-0.228L-3.02,-5.837L-7.627,-9.591L-1.887,-9.591L0,-14.97Z" style="fill:white;fill-rule:nonzero;"/>
        </g>
        <g transform="matrix(1,0,0,1,982.713,106.764)">
            <path d="M0,-14.97L1.89,-9.591L7.856,-9.591L3.097,-5.798L4.912,0L0,-3.75L-4.908,-0.228L-3.021,-5.837L-7.625,-9.591L-1.885,-9.591L0,-14.97Z" style="fill:white;fill-rule:nonzero;"/>
        </g>
        <g transform="matrix(1,0,0,1,982.713,124.349)">
            <path d="M0,-14.97L1.89,-9.589L7.856,-9.589L3.097,-5.801L4.912,0L0,-3.751L-4.908,-0.226L-3.021,-5.836L-7.625,-9.589L-1.885,-9.589L0,-14.97Z" style="fill:white;fill-rule:nonzero;"/>
        </g>
        <g transform="matrix(1,0,0,1,963.832,124.349)">
            <path d="M0,-14.97L1.89,-9.589L7.852,-9.589L3.096,-5.801L4.912,0L0,-3.751L-4.906,-0.226L-3.021,-5.836L-7.627,-9.589L-1.886,-9.589L0,-14.97Z" style="fill:white;fill-rule:nonzero;"/>
        </g>
        <g transform="matrix(1,0,0,1,963.68,106.764)">
            <path d="M0,-14.97L1.889,-9.591L7.857,-9.591L3.099,-5.798L4.909,0L0,-3.75L-4.906,-0.228L-3.02,-5.837L-7.626,-9.591L-1.886,-9.591L0,-14.97Z" style="fill:white;fill-rule:nonzero;"/>
        </g>
        <g transform="matrix(1,0,0,1,957.067,211.941)">
            <path d="M0,-83.665L0,-34.905C0.196,-24.054 8.391,-20.384 15.958,-17.525L21.878,-15.836C30.769,-14.679 39.402,-12.458 51.133,0C51.15,-0.025 51.167,-0.048 51.185,-0.072C51.202,-0.048 51.218,-0.025 51.235,0C62.966,-12.458 71.6,-14.679 80.491,-15.836L86.411,-17.525C93.979,-20.384 102.172,-24.054 102.369,-34.905L102.369,-83.665L0,-83.665Z" style="fill:white;fill-rule:nonzero;"/>
        </g>
        <g transform="matrix(1,0,0,1,1047.06,162.144)">
            <path d="M0,4.567L0,15.549C-2.385,16.082 -4.98,16.7 -7.143,17.31L-7.143,-19.682L-4.508,-20.887L-4.508,-27.414L-18.827,-27.414L-18.827,-20.887L-16.192,-19.682L-16.192,20.919C-17.73,21.715 -19.04,22.491 -20.087,23.155L-20.087,31.981C-17.226,30.331 -10.108,26.292 -6.646,24.9C0,22.227 7.146,21.596 7.146,21.596L7.146,4.567L0,4.567Z" style="fill:rgb(180,32,37);fill-rule:nonzero;"/>
        </g>
        <g transform="matrix(1,0,0,1,1016.16,198.692)">
            <path d="M10.813,-63.962L-26.319,-63.962L-26.319,-51.705L-20.191,-51.705L-18.243,-56.24L-12.271,-56.24L-12.271,-11.562C-14.26,-11.79 -15.966,-11.914 -15.966,-11.914L-15.966,-4.925C-15.966,-4.925 -11.67,-4.467 -8.634,-3.551C-6.182,-2.811 -0.157,0 -0.157,0L-0.157,-7.733C-0.157,-7.733 -1.322,-8.474 -3.22,-9.3L-3.22,-56.24L2.737,-56.24L4.685,-51.705L10.813,-51.705L10.813,-63.962Z" style="fill:rgb(180,32,37);fill-rule:nonzero;"/>
        </g>
        <g transform="matrix(1,0,0,1,976.246,138.234)">
            <path d="M0,48.344C-6.646,45.721 -13.636,45.498 -13.636,45.498L-13.636,27.881L-6.489,27.881L-6.489,38.658C-4.104,39.181 -1.509,39.788 0.653,40.386L0.653,4.084L-1.981,2.901L-1.981,-3.504L12.338,-3.504L12.338,2.901L9.703,4.084L9.703,39.666L9.65,51.848" style="fill:rgb(180,32,37);fill-rule:nonzero;"/>
        </g>
    </g>
</svg>
